<?xml version="1.0" encoding="UTF-8"?>
<svg id="Layer_1" xmlns="http://www.w3.org/2000/svg" viewBox="0 0 500 500">
  <defs>
    <style>
      .cls-1 {
        fill: #fff;
      }

      .cls-2 {
        opacity: .79;
      }

      .cls-3, .cls-4 {
        opacity: .72;
      }

      .cls-5 {
        fill: #45b8fe;
      }

      .cls-6 {
        fill: #008dfa;
      }

      .cls-7 {
        fill: #f7f9fb;
      }

      .cls-4, .cls-8 {
        fill: #2f3030;
      }

      .cls-9 {
        fill: #008cf9;
      }

      .cls-10 {
        fill: #fefefe;
      }
    </style>
  </defs>
  <path class="cls-7" d="M478.1,268.57c-.79,24.89-6.23,48.78-15.3,71.93-9.95,25.42-24.36,48.03-42.69,68.2-1.33,1.47-2.81,2.81-4.22,4.21-.45.77-1.04,1.41-1.82,1.86-13.11,13.68-27.77,25.41-44.07,35.07-18.56,11-38.21,19.48-59.12,24.8-10.67,2.71-21.59,4.28-32.58,5.2-4.85.92-9.78,1-14.67,1.26-9.47.49-18.92-.2-28.36-.88-.37-.03-.73-.25-1.1-.39-17.56-1.63-34.7-5.22-51.29-11.29-21.89-7.99-42.15-18.96-60.69-33.08-8.1-6.16-15.79-12.81-22.8-20.22-1.1-.78-2.04-1.74-2.83-2.85-7.98-8.12-15.08-16.98-21.63-26.28-15.79-22.42-27.05-46.96-33.94-73.48-3.32-12.76-5.37-25.72-6.15-38.9-.3-5.09-.39-10.17-.32-15.26v-4.33c0-9.55.9-19.02,2.24-28.48,2.66-18.75,7.84-36.78,15.34-54.14,11.14-25.78,26.62-48.68,46.37-68.67.62-.62,1.29-1.18,1.93-1.77.79-1.09,1.78-1.97,2.85-2.78,8.77-8.45,18.3-15.94,28.36-22.81,18.77-12.82,38.92-22.72,60.79-28.99,9.65-2.77,19.41-5.09,29.37-6.53,3.83-1.07,7.78-1.43,11.71-1.8,8.55-.79,17.14-1.21,25.74-1.01,9.85.23,19.67,1.04,29.42,2.5.22.03.41.22.62.33,7.87.93,15.6,2.65,23.28,4.55,32.99,8.15,62.25,23.57,88.14,45.49,3.03,2.57,5.97,5.26,8.95,7.89,1.06.84,2.2,1.6,2.78,2.9,3.6,2.55,6.28,6.04,9.16,9.29,14.94,16.81,27.56,35.2,36.96,55.7,8.15,17.76,14.02,36.23,17.13,55.55,1.29,8,2.34,16.01,2.44,24.13.67,2.71.41,5.45.31,8.19.04.15.02.29-.06.43.11,4.82.5,9.65-.25,14.46Z"/>
  <path class="cls-9" d="M426.46,256.18c-.04.74.34,1.19,1.08,1.33.94.18,1.9.15,2.85.15,14.47,0,28.95-.01,43.42,0,4.44.01,4.46.02,4.42,4.48-.01,2.14.18,4.29-.13,6.43-.79,24.89-6.23,48.78-15.3,71.93-9.95,25.42-24.36,48.03-42.69,68.2-1.33,1.47-2.81,2.81-4.22,4.21-7.71-4.93-16.55-6.92-25.11-9.63-5.77-1.83-11.56-3.58-17.44-5.03-2.94-.73-3.22-1.44-1.87-4.23,6.18-12.78,11.56-25.89,15.97-39.38,1.61-4.92,3.16-9.86,4.29-14.92.15-.7.78-1.67-.38-2.03-1.03-.31-2.12-.16-2.66.99-.64,1.38-.94,2.87-1.34,4.33-4.69,17.01-10.41,33.62-18.51,49.35-2.15,4.17-2.13,4.25-6.82,3.38-12.06-2.26-24.08-4.66-36.25-6.28-3.47-.46-6.95-.92-10.43-1.27-3.24-.32-3.82-.97-3.14-4.1,1.67-7.71,3.24-15.43,4.4-23.24,1.02-6.93,1.88-13.88,2.74-20.84.11-.91.48-2.05-.93-2.3-1.43-.25-1.74.86-1.9,1.92-.95,6.38-1.73,12.78-2.66,19.17-1.22,8.43-2.81,16.81-4.7,25.12-.67,2.95-1.49,3.5-4.52,3.26-8.32-.68-16.68-.89-25-1.47-5.97-.41-11.95.1-17.89-.64-3.66-.46-3.81-.7-3.81-4.34-.02-13.06,0-26.13-.01-39.19,0-.88.05-1.75-.09-2.62-.13-.84-.61-1.27-1.47-1.24-.77.03-1.13.48-1.24,1.2-.12.79-.09,1.59-.09,2.38,0,13.15,0,26.29,0,39.43-.01,4.19-.48,4.68-4.7,4.65-14.26-.1-28.46.99-42.66,2-2.92.21-3.41-.05-4.09-3.03-2.3-10.1-4.09-20.3-5.37-30.58-.59-4.66-1.16-9.33-1.86-13.97-.16-1.03-.21-2.25-1.71-2.05-1.54.21-1.19,1.47-1.07,2.45,1.76,14.79,3.61,29.57,6.91,44.12.03.15.07.31.1.46.5,2.58.13,3.15-2.43,3.49-5.29.72-10.57,1.45-15.87,2.11-10.13,1.26-20.12,3.28-30.11,5.27-5.61,1.11-5.59,1.11-8.22-4.09-10.8-21.28-18.87-43.53-23.57-66.96-.45-2.23-1.85-3.4-4.17-4.69.65,2.96,1.11,5.54,1.67,8.1,3.3,15.06,7.8,29.73,13.69,43.98,3.2,7.73,6.9,15.23,10.73,22.67,1.45,2.84,1.26,3.25-1.93,3.93-11.39,2.42-22.49,5.89-33.5,9.64-2.65.9-5.16,2.12-7.64,3.4-.83.42-1.62,1.07-2.67.8-7.98-8.12-15.08-16.98-21.63-26.28-15.79-22.42-27.05-46.96-33.94-73.48-3.32-12.76-5.37-25.72-6.15-38.9-.3-5.09-.39-10.17-.32-15.26,1.2-1.08,2.7-.79,4.1-.79,14.49-.03,28.98-.02,43.48-.02.95,0,1.91.04,2.85-.14.73-.14,1.12-.56,1.07-1.33-.04-.66-.46-.97-1.06-1.09-.95-.19-1.91-.14-2.86-.14-14.49,0-28.98,0-43.47-.02-1.41,0-2.9.29-4.11-.8,0-9.55.9-19.02,2.24-28.48,2.66-18.75,7.84-36.78,15.34-54.14,11.14-25.78,26.62-48.68,46.37-68.67.62-.62,1.29-1.18,1.93-1.77,7.86,3.54,16.01,6.25,24.31,8.53,5.14,1.41,10.3,2.77,15.5,3.95,3.2.73,3.38,1.3,1.92,4.26-5.22,10.57-10.34,21.17-14.27,32.32-3.7,10.52-6.95,21.18-9.66,32-.11.46-.26.91-.08,1.54,2.31-.73,3.38-2.27,3.96-4.55,5.04-19.83,12.24-38.86,21.23-57.23.7-1.43,1.67-2.73,2.27-4.2.79-1.95,2.1-2.31,4.01-1.89,6.84,1.5,13.72,2.83,20.64,3.96,9.12,1.5,18.29,2.56,27.46,3.64,3.15.37,3.54.85,2.77,3.99-2.94,12.08-5.23,24.29-7.24,36.55-.13.78-.29,1.57-.31,2.37-.03.87-.17,1.84,1.1,1.99,1.15.12,2.05-.14,2.28-1.49.43-2.43.92-4.85,1.29-7.29,1.59-10.39,3.43-20.74,5.86-30.97.88-3.69,1.44-4.34,5.18-4.11,6.74.43,13.49.88,20.23,1.2,6.99.33,13.98.92,20.99.68,1.03-.04,2.07-.04,3.1.07,1.21.13,1.86.78,2,1.99.11.95.09,1.91.09,2.86,0,11.31-.02,22.62.03,33.93,0,1.13-.63,2.96,1.32,3.02,2.14.06,1.51-1.88,1.52-3.08.05-11.07.03-22.14.03-33.21,0-.8-.02-1.59.01-2.39.11-2.59.58-3.07,3.09-3.19.96-.04,1.92,0,2.87,0,9.78-.17,19.54-.74,29.31-1.33,4.13-.25,8.25-.53,12.38-.85,2.1-.16,2.81,1.08,3.2,2.78,1.67,7.13,3.28,14.28,4.54,21.5.91,5.25,1.93,10.49,2.56,15.8.11.86.31,1.72.53,2.57.31,1.23,1.13,1.68,2.32,1.51,1.44-.2,1.16-1.27,1.04-2.21-.65-4.82-1.48-9.6-2.32-14.39-1.44-8.24-3.18-16.41-5.16-24.54-.69-2.85-.29-3.4,2.57-3.71,16.47-1.79,32.83-4.35,49.07-7.59,1.77-.36,2.82.1,3.63,1.75,7.41,15.02,14.08,30.33,18.93,46.39.32,1.07.64,2.14,1.12,3.15.44.9,1.19,1.36,2.15,1.04,1.14-.38.62-1.31.42-2.01-2.22-7.82-4.69-15.56-7.66-23.13-3.37-8.6-7.07-17.06-11.57-25.15-1.34-2.42-1.02-3.17,1.71-3.85,10.67-2.65,21.22-5.7,31.57-9.44,2.84-1.03,5.34-2.75,8.17-3.79,3.6,2.55,6.28,6.04,9.16,9.29,14.94,16.81,27.56,35.2,36.96,55.7,8.15,17.76,14.02,36.23,17.13,55.55,1.29,8,2.34,16.01,2.44,24.13.43,2.72-.14,5.47.31,8.19.04.15.02.29-.06.43-1.18,1.15-2.69.83-4.08.83-14.63.03-29.26.02-43.9.02-.95,0-1.91-.04-2.85.14-.62.11-1.03.43-1.06,1.08Z"/>
  <path class="cls-1" d="M415.89,412.91c-.45.77-1.04,1.41-1.82,1.86-.9.56-1.8.48-2.73.06-11.03-5.09-22.85-7.82-34.38-11.42-1.6-.5-3.21-.95-4.83-1.35-3.09-.76-3.1-.78-4.79,1.8-3.84,5.86-7.51,11.82-11.72,17.42-4.88,6.48-9.99,12.77-15.47,18.77-10.38,11.37-22.47,20.62-35.49,28.7-6.71,4.17-13.93,7.31-21.4,9.88-1.63.56-3.4.45-4.96,1.21-4.85.92-9.78,1-14.67,1.26-9.47.49-18.92-.2-28.36-.88-.37-.03-.73-.25-1.1-.39-4-1.19-8.02-2.28-11.88-3.92-12.19-5.17-23.18-12.18-33.35-20.7-16.9-14.17-30.76-30.81-42.01-49.72-2.48-4.17-1.38-3.91-6.43-2.75-11.19,2.57-22.2,5.75-33.02,9.58-1.88.67-3.6,1.68-5.41,2.52-.84.39-1.67,1.03-2.68.4-1.1-.78-2.04-1.74-2.83-2.85,6.05-4.03,12.99-5.88,19.79-8.08,8.37-2.7,16.84-5.07,25.48-6.75,1.57-.31.76-.91.4-1.59-8.15-15.17-14.78-30.98-19.81-47.44-2.93-9.63-5-19.48-7.16-29.3-.04-.21.07-.45.08-.55,4.93,1.15,5.72,5.17,6.57,9.3,3.47,16.68,8.76,32.77,15.68,48.34,2.62,5.89,5.39,11.69,8.24,17.47.84,1.71,1.89,2.06,3.61,1.69,9.83-2.12,19.69-4.04,29.64-5.5,6.57-.97,13.18-1.71,19.78-2.45,1.36-.16,1.57-.65,1.27-1.85-2.49-10-3.96-20.18-5.46-30.35-.78-5.25-1.36-10.52-1.98-15.79-.3-2.56.9-3.46,3.39-2.72.67.2.81.61.89,1.21.95,7.37,1.86,14.76,2.88,22.12,1.18,8.55,2.8,17.02,4.75,25.42.21.91.5,1.44,1.55,1.34,9.71-1.01,19.45-1.45,29.2-1.95,5.25-.26,10.49-.17,15.73-.35,3.21-.11,3.22-.04,3.22-3.36-.01-14.02.01-28.04-.03-42.05-.01-1.59.14-2.5,2.13-2.47,1.81.03,2.29.59,2.27,2.34-.08,8.36-.04,16.73-.04,25.09,0,5.97.03,11.95-.02,17.92-.01,1.43.28,2,1.92,2.2,3.42.4,6.83.21,10.25.37,10.54.46,21.1.88,31.64,1.48,5.33.31,5.42.48,6.56-4.78,2.15-9.9,3.97-19.86,5.12-29.93.5-4.33,1.39-8.6,1.8-12.93.25-2.53,1.92-1.58,3.13-1.65,1.73-.11,1.32,1.32,1.22,2.23-.44,3.93-.99,7.85-1.51,11.77-1.14,8.47-2.35,16.92-4.17,25.27-.64,2.94-1.25,5.89-1.9,8.82-.32,1.42-.14,2.41,1.63,2.53,8.7.6,17.28,2.1,25.87,3.45,7.03,1.11,14,2.6,21,3.93,1.16.22,2.33.44,3.48.71,1.21.28,1.88-.17,2.45-1.27,4.23-8.03,7.87-16.32,11.03-24.82,3.74-10.05,6.95-20.26,9.63-30.64.44-1.71,3.4-2.89,4.93-1.97.79.47.24,1.15.11,1.69-2.26,9.42-5.32,18.6-8.64,27.69-3.59,9.78-7.76,19.32-12.41,28.64-.92,1.84-.36,2.24,1.27,2.64,11.4,2.82,22.59,6.38,33.72,10.13,2.71.91,5.28,2.17,7.8,3.53.72.39,1.43.75,1.35,1.74Z"/>
  <path class="cls-1" d="M412.41,100.82c-1.98,2.37-4.85,3.25-7.57,4.26-10.49,3.9-21.21,7.09-32.11,9.62-1.21.28-2.78.21-1.51,2.43,7.14,12.46,12.37,25.76,16.82,39.38,1.11,3.39,2.06,6.84,3.05,10.27.24.82,1.08,2.07-.46,2.23-1.19.12-2.95,1.02-3.6-1.1-.46-1.52-1-3.02-1.46-4.54-4.84-16.02-11.68-31.22-18.95-46.25-.38-.8-.75-.99-1.64-.77-5.69,1.42-11.46,2.43-17.27,3.18-8.32,1.09-16.5,3.01-24.88,3.7-2.99.25-5.98.68-8.98.9-1.41.1-1.49.67-1.18,1.84,3.58,13.48,5.82,27.23,8.03,40.99.13.82.52,2.23-1.04,2.08-1.27-.12-3.26,1.18-3.7-1.2-1.02-5.44-1.94-10.9-2.84-16.36-1.39-8.53-3.28-16.94-5.24-25.34-.28-1.2-.83-1.54-2-1.41-6.54.71-13.11,1.06-19.69,1.37-8.65.41-17.29,1.07-25.96.93-2.02-.04-1.59,1.32-1.59,2.44-.01,12.42-.03,24.85.02,37.27,0,1.61-.18,2.48-2.15,2.45-1.83-.03-2.26-.62-2.25-2.36.07-12.35-.02-24.69.08-37.04.02-2.15-.49-2.9-2.75-2.79-7.55.4-15.1-.35-22.65-.56-7.13-.19-14.25-.83-21.37-1.36-1.83-.14-2.71.43-3.14,2.29-1.98,8.4-3.64,16.86-5.05,25.37-.84,5.07-1.48,10.18-2.5,15.21-.46,2.28-2.64.93-4.02,1.11-1.46.19-.81-.94-.72-1.63,1.45-11.8,3.83-23.42,6.43-35.01.48-2.16,1.03-4.31,1.57-6.46.24-.96.31-1.69-1.04-1.81-16.81-1.49-33.45-4.13-49.94-7.69-1.44-.31-2.06-.19-2.84,1.27-6.55,12.22-11.88,24.97-16.45,38.03-2.87,8.23-5.59,16.52-7.47,25.06-.63,2.84-3.46,3.06-5.75,4.96,1.48-6.97,3.36-13.09,5.12-19.23,4.97-17.32,11.86-33.86,20.19-49.82.73-1.38.91-1.83-.94-2.26-12.44-2.92-24.82-6.06-36.67-10.92-1.43-.59-3.07-.94-3.95-2.47.79-1.09,1.78-1.97,2.85-2.78.73-.06,1.41.12,2.08.4,10.76,4.5,21.95,7.6,33.28,10.23.7.17,1.4.33,2.09.53q3.58,1.01,5.43-2.08c9.19-15.51,20.12-29.69,33.42-41.84,11.65-10.64,24.63-19.39,39.71-24.64.83-.29,1.91,0,2.51-.93,3.83-1.07,7.78-1.43,11.71-1.8,8.55-.79,17.14-1.21,25.74-1.01,9.85.23,19.67,1.04,29.42,2.5.22.03.41.22.62.33,16.59,4.84,30.75,14,43.67,25.13,7.43,6.4,13.63,14.03,19.77,21.67,5.4,6.72,10.43,13.68,14.52,21.28.84,1.56,1.79,2.41,3.78,1.95,11.02-2.56,21.91-5.53,32.55-9.41,2.1-.76,3.83-2.3,6.08-2.69,1.06.84,2.2,1.6,2.78,2.9Z"/>
  <path class="cls-6" d="M414.07,414.77c-13.11,13.68-27.77,25.41-44.07,35.07-18.56,11-38.21,19.48-59.12,24.8-10.67,2.71-21.59,4.28-32.58,5.2,1.91-1.47,4.31-1.67,6.48-2.42,13.78-4.76,25.81-12.48,37.11-21.48,5.15-4.11,10.32-8.21,14.85-13.01,10.91-11.58,20.59-24.12,28.96-37.67,2.95-4.78,3.1-4.89,8.38-3.33,11.55,3.43,23.21,6.48,34.45,10.91,1.81.71,3.39,2.18,5.54,1.93Z"/>
  <path class="cls-6" d="M235.21,479.46c-.22.44-.7.2-1.04.37-17.56-1.63-34.7-5.22-51.29-11.29-21.89-7.99-42.15-18.96-60.69-33.08-8.1-6.16-15.79-12.81-22.8-20.22,2.54-.73,4.69-2.36,7.15-3.24,12.18-4.38,24.62-7.84,37.24-10.71,1.1-.25,1.52.01,2.02.91,7.47,13.66,16.75,26.03,27.43,37.3,13.25,13.98,27.82,26.28,45.63,34.23,5.29,2.36,10.69,4.41,16.35,5.73Z"/>
  <path class="cls-6" d="M409.63,97.92c-3.83,3.04-8.45,4.3-12.98,5.73-8.38,2.66-16.85,5.04-25.43,6.99-1.92.43-3.2.35-4.31-1.74-6.45-12.24-15.31-22.71-24.34-33.09-10.05-11.56-22.12-20.42-35.41-27.8-5.24-2.9-10.8-4.99-16.37-7.1-.5-.19-1.5.14-1.53-.92,7.87.93,15.6,2.65,23.28,4.55,32.99,8.15,62.25,23.57,88.14,45.49,3.03,2.57,5.97,5.26,8.95,7.89Z"/>
  <path class="cls-6" d="M222.17,40.43c-2.64,1.08-5.32,2.08-7.97,3.15-10.47,4.22-19.76,10.41-28.46,17.5-16.57,13.52-29.35,30.2-40.19,48.48-.65,1.09-1.13,1.59-2.52,1.24-12.05-3.08-24.14-5.98-35.73-10.58-1.39-.55-2.7-1.28-4.05-1.92,8.77-8.45,18.3-15.94,28.36-22.81,18.77-12.82,38.92-22.72,60.79-28.99,9.65-2.77,19.41-5.09,29.37-6.53.07.02.15.04.22.08.18.08.53.24.18.38Z"/>
  <path class="cls-1" d="M478.1,268.57c-.02-2.55-.17-5.1,0-7.63.12-2.02-.6-2.53-2.55-2.52-15.91.08-31.82.01-47.73.09-1.91,0-2.43-.55-2.43-2.42.01-1.89.93-1.97,2.37-1.97,16.87.02,33.73,0,50.6-.01.11,4.82.5,9.65-.25,14.46Z"/>
  <path class="cls-1" d="M87.12,256.18c.02,2.04-.78,2.32-2.52,2.32-16.38-.06-32.75-.04-49.13-.04-.32,0-.64.01-.95.01v-4.33c16.7,0,33.39,0,50.09-.02,1.51-.01,2.49.02,2.51,2.06Z"/>
  <g class="cls-2">
    <g>
      <g class="cls-3">
        <path class="cls-8" d="M198.72,244.13c6.29,0,12.58-.01,18.88,0,6.92.02,11.36,4.38,11.38,11.22.04,12.5.07,25.01.05,37.51-.01,5.56-3.23,9.69-6.58,13.62-10.54,12.36-24.05,19.43-40.03,21.79-23.84,3.52-43.72-4.52-60.37-21.29-11.22-11.3-17.55-25.14-19.42-40.89-2.81-23.62,3.9-44.17,21-60.91,10.66-10.43,23.48-16.9,38.36-18.92,16.87-2.29,32.65.89,47.22,9.75,2.73,1.66,5.13,3.75,7.09,6.31,3.78,4.95,3.4,11.71-.89,16.34-4.42,4.76-10.5,5.57-15.93,1.96-9.64-6.42-20.22-9.86-31.74-8.39-18.49,2.36-31.32,12.37-37.17,30.3-7.27,22.25,3.58,47.28,24.64,56.15,16.67,7.02,32.52,5.39,46.65-6.75,1.12-.96,1.6-1.97,1.57-3.48-.09-5.65-.09-11.31,0-16.96.02-1.48-.37-1.83-1.85-1.81-7.25.1-14.5.07-21.74.05-7.17-.02-12.64-4.63-13.24-11.1-.66-7.15,3.41-12.76,10.42-14.32.77-.17,1.58-.18,2.37-.19,6.45-.01,12.9,0,19.36,0Z"/>
        <path class="cls-8" d="M346.99,220.35h-63.11c-12.92,0-23.39-10.47-23.39-23.39v-5.61h86.5c8.01,0,14.5,6.49,14.5,14.5h0c0,8.01-6.49,14.5-14.5,14.5Z"/>
        <path class="cls-8" d="M346.99,271.35h-63.11c-12.92,0-23.39-10.47-23.39-23.39v-5.61h86.5c8.01,0,14.5,6.49,14.5,14.5h0c0,8.01-6.49,14.5-14.5,14.5Z"/>
        <path class="cls-8" d="M346.99,322.35h-63.11c-12.92,0-23.39-10.47-23.39-23.39v-5.61h86.5c8.01,0,14.5,6.49,14.5,14.5h0c0,8.01-6.49,14.5-14.5,14.5Z"/>
      </g>
      <path class="cls-4" d="M406.5,327h0c-6.9,0-12.5-5.6-12.5-12.5v-129.5h0c13.81,0,25,11.19,25,25v104.5c0,6.9-5.6,12.5-12.5,12.5Z"/>
    </g>
  </g>
  <path class="cls-5" d="M478.41,253.68c-.69-2.71-.34-5.45-.31-8.19.67,2.71.41,5.45.31,8.19Z"/>
  <path class="cls-10" d="M194.23,240.78c6.29,0,12.58-.01,18.88,0,6.92.02,11.36,4.38,11.38,11.22.04,12.5.07,25.01.05,37.51-.01,5.56-3.23,9.69-6.58,13.62-10.54,12.36-24.05,19.43-40.03,21.79-23.84,3.52-43.72-4.52-60.37-21.29-11.22-11.3-17.55-25.14-19.42-40.89-2.81-23.62,3.9-44.17,21-60.91,10.66-10.43,23.48-16.9,38.36-18.92,16.87-2.29,32.65.89,47.22,9.75,2.73,1.66,5.13,3.75,7.09,6.31,3.78,4.95,3.4,11.71-.89,16.34-4.42,4.76-10.5,5.57-15.93,1.96-9.64-6.42-20.22-9.86-31.74-8.39-18.49,2.36-31.32,12.37-37.17,30.3-7.27,22.25,3.58,47.28,24.64,56.15,16.67,7.02,32.52,5.39,46.65-6.75,1.12-.96,1.6-1.97,1.57-3.48-.09-5.65-.09-11.31,0-16.96.02-1.48-.37-1.83-1.85-1.81-7.25.1-14.5.07-21.74.05-7.17-.02-12.64-4.63-13.24-11.1-.66-7.15,3.41-12.76,10.42-14.32.77-.17,1.58-.18,2.37-.19,6.45-.01,12.9,0,19.36,0Z"/>
  <path class="cls-6" d="M363.74,399.48c-6.28,10.05-12.4,19.67-19.91,28.36-4.57,5.29-9,10.75-14.17,15.45-12.69,11.55-26.32,21.79-42.38,28.29-6.15,2.49-12.53,4.41-19.72,5.19,7.69-5.56,13.3-12.41,17.99-20,6.36-10.3,11.37-21.29,15.71-32.59,3.85-10.02,6.8-20.3,9.3-30.72.41-1.7.85-1.97,2.66-1.81,8.76.76,17.44,2.13,26.11,3.54,8.03,1.31,16.04,2.81,24.41,4.29Z"/>
  <path class="cls-6" d="M244.43,476.64c-2.99-.06-5.8-.79-8.61-1.57-15.89-4.42-29.72-12.52-42.43-22.92-16.98-13.91-30.64-30.58-42.16-49.12-.04-.07-.08-.14-.12-.21-1.7-2.9-1.72-2.99,1.63-3.64,11.96-2.33,23.92-4.65,36.05-5.98,3.69-.41,7.36-1.04,11.06-1.45,1.41-.16,1.67.21,1.99,1.47,3.06,12.09,6.69,24.02,11.4,35.56,5.21,12.74,11.11,25.16,19.54,36.19,3.35,4.38,7.32,8.1,11.63,11.68Z"/>
  <path class="cls-6" d="M254.29,432.54c0,13.85,0,27.7,0,41.55,0,2.63-.16,2.76-2.47,1.51-7.59-4.12-13.34-10.22-18.01-17.34-8.59-13.08-15.19-27.15-20.02-42.02-2.47-7.61-4.74-15.29-7.21-22.91-.55-1.7-.13-2.34,1.56-2.44,5.46-.32,10.92-.64,16.38-1.01,8.56-.58,17.12-.86,25.7-1.01,4.09-.08,4.08-.26,4.08,3.79,0,13.29,0,26.59,0,39.88Z"/>
  <path class="cls-6" d="M258.63,432.45c0-13.78.04-27.55-.04-41.33-.01-2.03.4-2.84,2.61-2.67,8.4.65,16.82.71,25.23,1.05,6.17.25,12.33.9,18.5,1.33,1.07.08,1.62.23,1.26,1.55-6.59,24.06-14.37,47.62-28.98,68.25-4.2,5.94-9.22,11.11-15.72,14.66-2.68,1.46-2.86,1.4-2.86-1.52,0-13.78,0-27.55,0-41.33Z"/>
  <path class="cls-6" d="M363.46,112.12c-6.21,1.14-12.4,2.36-18.6,3.4-6.86,1.16-13.74,2.23-20.63,3.21-3.99.57-8.02.87-12.03,1.35-1.36.16-1.17-.98-1.3-1.55-1.71-7.27-3.89-14.39-6.42-21.4-4.9-13.64-10.74-26.86-18.72-39.01-4.33-6.59-9.72-12.3-16.21-16.96,7.15.94,14.16,2.39,20.92,4.81,11.52,4.13,22.19,9.85,31.9,17.32,8.42,6.47,15.79,14,22.6,22.13,6.33,7.56,11.99,15.6,17.21,23.95.5.81,1.1,1.55,1.29,2.75Z"/>
  <path class="cls-6" d="M242.81,40.91c-2.45,2.24-4.9,4.3-7.21,6.55-6.17,6-10.66,13.19-14.67,20.69-8.28,15.47-14.28,31.84-18.77,48.77-.89,3.34-1.13,3.4-5.38,2.89-15.08-1.81-30.06-4.24-44.96-7.12-1.38-.27-2.64-.35-1.46-2.29,8.29-13.61,17.68-26.41,29.03-37.59,14.56-14.35,31.49-24.84,51.59-29.63,3.9-.93,7.89-1.52,11.84-2.27Z"/>
  <path class="cls-6" d="M254.29,81.59c0,12.89-.04,25.79.05,38.68.01,2.02-.61,2.48-2.56,2.52-7.72.15-15.41-.36-23.11-.63-7.04-.24-14.07-.93-21.11-1.33-2.53-.14-1.07-1.8-.88-2.49,2.81-10,5.9-19.92,9.81-29.56,3.95-9.73,8.37-19.21,14.29-27.92,4.73-6.96,10.25-13.13,17.57-17.5,1.24-.74,2.57-1.23,3.88-1.79,1.71-.73,2.11-.19,2.09,1.58-.07,9.79-.04,19.58-.04,29.37,0,3.02,0,6.05,0,9.07Z"/>
  <path class="cls-6" d="M258.63,81.83c0-12.58,0-25.15,0-37.73,0-3.04.2-3.16,2.89-1.91,8.65,4.03,14.83,10.76,20.1,18.46,7.41,10.84,12.52,22.8,17.13,35,2.86,7.57,5.23,15.3,7.3,23.13.47,1.79-.1,1.99-1.63,2.03-10.07.26-20.11,1.21-30.18,1.56-4.36.15-8.73.11-13.09.39-1.96.13-2.58-.47-2.57-2.5.09-12.81.05-25.63.05-38.44Z"/>
  <path class="cls-1" d="M256,188h86.5c8,0,14.5,6.5,14.5,14.5h0c0,8-6.5,14.5-14.5,14.5h-63.11c-12.91,0-23.39-10.48-23.39-23.39v-5.61h0Z"/>
  <path class="cls-1" d="M256,239h86.5c8,0,14.5,6.5,14.5,14.5h0c0,8-6.5,14.5-14.5,14.5h-63.11c-12.91,0-23.39-10.48-23.39-23.39v-5.61h0Z"/>
  <path class="cls-1" d="M256,290h86.5c8,0,14.5,6.5,14.5,14.5h0c0,8-6.5,14.5-14.5,14.5h-63.11c-12.91,0-23.39-10.48-23.39-23.39v-5.61h0Z"/>
  <path class="cls-10" d="M389,182h0c13.8,0,25,11.2,25,25v104.5c0,6.9-5.6,12.5-12.5,12.5h0c-6.9,0-12.5-5.6-12.5-12.5v-129.5h0Z"/>
</svg>